{"title":"Kill Dil (2014) - 1CD - DVDSCR-Rip - Hindi - x264 - MP3 - Mafiak","uid":11484025,"size":737212844,"categoryP":"video","categoryS":"movies","magnet":"?xt=urn:btih:03152d76c3b214265decab2fb65bee9b967cfdae&amp;dn=Kill+Dil+%282014%29+-+1CD+-+DVDSCR-Rip+-+Hindi+-+x264+-+MP3+-+Mafiak&amp;tr=udp%3A%2F%2Ftracker.openbittorrent.com%3A80&amp;tr=udp%3A%2F%2Fopen.demonii.com%3A1337&amp;tr=udp%3A%2F%2Ftracker.coppersurfer.tk%3A6969&amp;tr=udp%3A%2F%2Fexodus.desync.com%3A6969","seeders":23,"leechers":5,"uploader":"inovai","files":3,"time":1416204306,"description":"Kill Dil (2014) - 1CD - DVDSCR-Rip - Hindi - x264 - MP3 - Mafiaking - Team TellyTNT ExClusive\n\nCover:\n &lt;a href=&quot;\nhttp://forum.primetimeshow.in/viewtopic.php?f=7&amp;t=814&quot; rel=&quot;nofollow&quot; target=&quot;_NEW&quot;&gt;\nhttp://forum.primetimeshow.in/viewtopic.php?f=7&amp;t=814&lt;/a&gt;\n\nRatings: 5.6/10\n\nGENRE: Action | Crime | Drama\n\nScreenshots:\n &lt;a href=&quot;\nhttp://m.primetimeshow.in/share-4BE2_54698146.html&quot; rel=&quot;nofollow&quot; target=&quot;_NEW&quot;&gt;\nhttp://m.primetimeshow.in/share-4BE2_54698146.html&lt;/a&gt;\n &lt;a href=&quot;\nhttp://m.primetimeshow.in/share-A0F8_54698146.html&quot; rel=&quot;nofollow&quot; target=&quot;_NEW&quot;&gt;\nhttp://m.primetimeshow.in/share-A0F8_54698146.html&lt;/a&gt;\n &lt;a href=&quot;\nhttp://m.primetimeshow.in/share-E827_54698146.html&quot; rel=&quot;nofollow&quot; target=&quot;_NEW&quot;&gt;\nhttp://m.primetimeshow.in/share-E827_54698146.html&lt;/a&gt;\n &lt;a href=&quot;\nhttp://m.primetimeshow.in/share-6E37_54698146.html&quot; rel=&quot;nofollow&quot; target=&quot;_NEW&quot;&gt;\nhttp://m.primetimeshow.in/share-6E37_54698146.html&lt;/a&gt;\n &lt;a href=&quot;\nhttp://m.primetimeshow.in/share-C981_54698146.html&quot; rel=&quot;nofollow&quot; target=&quot;_NEW&quot;&gt;\nhttp://m.primetimeshow.in/share-C981_54698146.html&lt;/a&gt;\n\nGeneral\nUnique ID : 253007391522127208959501529699269775161 (0xBE57737E75C4E2BDBDF99D5151E48F39)\nComplete name : Kill Dil (2014) - 1CD - DVDSCR-Rip - Hindi - x264 - MP3 - Mafiaking - Team TellyTNT ExClusive.mkv\nFormat : Matroska\nFormat version : Version 4 / Version 2\nFile size : 697 MiB\nDuration : 1h 57mn\nOverall bit rate : 832 Kbps\nMovie name : Kill Dil (2014) - 1CD - DVDSCR-Rip - Hindi - x264 - MP3 - Mafiaking - Team TellyTNT ExClusive\nEncoded date : UTC 2014-11-16 18:35:56\nWriting application : mkvmerge v7.0.0 ('Where We Going') 64bit built on Jun 9 2014 15:16:27\nWriting library : libebml v1.3.0 + libmatroska v1.4.1\n\n\nVideo\nID : 1\nFormat : AVC\nFormat/Info : Advanced Video Codec\nFormat profile : &lt;a class=&quot;__cf_email__&quot; href=&quot;/cdn-cgi/l/email-protection&quot; data-cfemail=&quot;6c24050b042c2058425d&quot;&gt;[email&amp;#160;protected]&lt;/a&gt;&lt;script cf-hash='f9e31' type=&quot;text/javascript&quot;&gt;\n/* &lt;![CDATA[ */!function(){try{var t=&quot;currentScript&quot;in document?document.currentScript:function(){for(var t=document.getElementsByTagName(&quot;script&quot;),e=t.length;e--;)if(t[e].getAttribute(&quot;cf-hash&quot;))return t[e]}();if(t&amp;&amp;t.previousSibling){var e,r,n,i,c=t.previousSibling,a=c.getAttribute(&quot;data-cfemail&quot;);if(a){for(e=&quot;&quot;,r=parseInt(a.substr(0,2),16),n=2;a.length-n;n+=2)i=parseInt(a.substr(n,2),16)^r,e+=String.fromCharCode(i);e=document.createTextNode(e),c.parentNode.replaceChild(e,c)}}}catch(u){}}();/* ]]&gt; */&lt;/script&gt;\nFormat settings, CABAC : Yes\nFormat settings, ReFrames : 4 frames\nCodec ID : V_MPEG4/ISO/AVC\nDuration : 1h 57mn\nBit rate : 750 Kbps\nWidth : 640 pixels\nHeight : 272 pixels\nDisplay aspect ratio : 2.35:1\nFrame rate mode : Constant\nFrame rate : 24.000 fps\nColor space : YUV\nChroma subsampling : 4:2:0\nBit depth : 8 bits\nScan type : Progressive\nBits/(Pixel*Frame) : 0.180\nStream size : 616 MiB (88%)\nTitle : Mafiaking\nWriting library : x264 core 142 r2431 ac76440\nLanguage : Hindi\nDefault : Yes\nForced : No\n\n\nAudio\nID : 2\nFormat : MPEG Audio\nFormat version : Version 1\nFormat profile : Layer 3\nMode : Joint stereo\nCodec ID : A_MPEG/L3\nCodec ID/Hint : MP3\nDuration : 1h 57mn\nBit rate mode : Constant\nBit rate : 80.0 Kbps\nChannel(s) : 2 channels\nSampling rate : 32.0 KHz\nCompression mode : Lossy\nStream size : 67.1 MiB (10%)\nTitle : Mafiaking\nWriting library : LAME3.99r\nLanguage : Hindi\nDefault : Yes\nForced : No\n\nSAMPLE WITH IN TORRENT!!\n\nThanks to Mafiaking - Team TellyTNT!!\n\nSeed n Enjoy!!","torrent":{"xt":"urn:btih:03152d76c3b214265decab2fb65bee9b967cfdae","amp;dn":"Kill+Dil+%282014%29+-+1CD+-+DVDSCR-Rip+-+Hindi+-+x264+-+MP3+-+Mafiak","amp;tr":["udp%3A%2F%2Ftracker.openbittorrent.com%3A80","udp%3A%2F%2Fopen.demonii.com%3A1337","udp%3A%2F%2Ftracker.coppersurfer.tk%3A6969","udp%3A%2F%2Fexodus.desync.com%3A6969"],"infoHash":"03152d76c3b214265decab2fb65bee9b967cfdae","infoHashBuffer":{"type":"Buffer","data":[3,21,45,118,195,178,20,38,93,236,171,47,182,91,238,155,150,124,253,174]},"announce":[],"urlList":[]}}